<?xml version="1.0" standalone="no"?>
<!DOCTYPE svg PUBLIC "-//W3C//DTD SVG 20010904//EN"
 "http://www.w3.org/TR/2001/REC-SVG-20010904/DTD/svg10.dtd">
<svg version="1.0" xmlns="http://www.w3.org/2000/svg"
 width="80.000000pt" height="80.000000pt" viewBox="0 0 80.000000 80.000000"
 preserveAspectRatio="xMidYMid meet">
<metadata>
Created by potrace 1.14, written by Peter Selinger 2001-2017
</metadata>
<g transform="translate(0.000000,80.000000) scale(0.100000,-0.100000)"
fill="#000000" stroke="none">
<path d="M232 616 c-30 -35 -49 -108 -37 -146 4 -14 -5 -29 -36 -57 -72 -65
-86 -127 -44 -199 19 -32 39 -50 82 -71 55 -27 65 -28 198 -28 110 0 151 4
193 18 125 44 146 187 39 272 -32 26 -34 31 -25 57 26 74 -9 168 -68 182 -55
14 -134 -52 -134 -111 0 -13 -4 -23 -10 -23 -5 0 -10 13 -10 29 0 105 -84 149
-148 77z m112 -15 c8 -14 17 -56 21 -93 6 -57 10 -68 26 -68 14 0 19 7 19 28
0 72 33 136 78 153 74 28 123 -55 93 -159 -9 -30 -7 -35 39 -81 58 -58 72
-104 46 -157 -8 -19 -30 -43 -47 -53 -45 -28 -153 -43 -267 -39 -81 2 -106 7
-147 29 -57 29 -95 78 -95 122 0 39 40 107 78 131 26 17 28 23 28 80 -1 70 23
121 64 134 33 12 48 5 64 -27z"/>
<path d="M314 335 c-8 -20 3 -48 16 -40 13 8 13 55 0 55 -6 0 -13 -7 -16 -15z"/>
<path d="M464 335 c-7 -18 2 -45 15 -45 13 0 22 27 15 45 -4 8 -10 15 -15 15
-5 0 -12 -7 -15 -15z"/>
<path d="M385 301 c-7 -12 12 -24 25 -16 11 7 4 25 -10 25 -5 0 -11 -4 -15 -9z"/>
</g>
</svg>
